<?xml version="1.0" encoding="utf-8"?>
<!-- Generator: Adobe Illustrator 16.0.0, SVG Export Plug-In . SVG Version: 6.00 Build 0)  -->
<!DOCTYPE svg PUBLIC "-//W3C//DTD SVG 1.1//EN" "http://www.w3.org/Graphics/SVG/1.1/DTD/svg11.dtd"[]>
<svg version="1.1" id="Capa_1" xmlns="http://www.w3.org/2000/svg" xmlns:xlink="http://www.w3.org/1999/xlink" x="0px" y="0px" width="207px" height="98px" viewBox="0 0 207 98" enable-background="new 0 0 207 98" xml:space="preserve">
  <g>
    <path fill="#ED1D24" d="M20.627,91.367l23.764-80.735c0.865-2.706,1.709-4.533,2.566-5.478c0.87-0.948,2.021-1.604,3.475-1.957
		l9.132-2.304c0.091,0,0.268-0.019,0.578-0.068c0.303-0.035,0.668-0.064,1.099-0.064c0.685,0,1.217,0.18,1.601,0.543
		c0.387,0.36,0.589,0.897,0.589,1.617c0,0.451-0.025,0.815-0.062,1.082c-0.058,0.274-0.119,0.54-0.196,0.812L45.294,64.647
		c13.285-21.695,25.274-37.819,34.912-48.361c9.635-10.533,17.704-15.8,24.218-15.8c4.028,0,7.447,1.486,10.27,4.458
		c2.837,2.969,4.258,6.617,4.258,10.938c0,2.436-0.504,5.629-1.487,9.592c-0.978,3.96-2.757,9.909-5.325,17.833
		c-0.511,1.444-1.196,3.465-2.045,6.082c-5.815,17.288-8.722,27.827-8.722,31.6c0,1.177,0.487,2.237,1.475,3.181
		c0.978,0.948,2.159,1.417,3.526,1.417c3.848,0,9.953-5.244,18.861-15.269c5.947-6.689,18.523-23.455,27.659-37.085
		c1.233-1.833,1.879-2.854,2.886-4.477c0.563-0.916,1.55-0.039,1.814,0.576c0.28,0.65,0.233,1.399-0.099,2.368
		c-0.508,1.577-6.016,12.351-12.395,21.807c-8.184,12.158-13.631,19.701-28.029,34.435c-6.445,6.595-12.752,9.535-17.879,9.535
		c-4.445,0-8.174-1.832-11.13-5.073c-2.949-3.235-4.423-7.347-4.423-12.301c0-3.598,2.424-12.92,7.284-27.972
		c1.873-5.679,3.318-10.189,4.345-13.523c2.294-7.384,3.92-12.761,4.846-16.152c0.95-3.377,1.417-5.552,1.417-6.549
		c0-1.078-0.429-2.023-1.288-2.84c-0.86-0.809-1.835-1.215-2.948-1.215c-3.172,0-8.024,3.519-14.572,10.543
		C76.172,29.42,68.13,39.151,59.661,51.579c-4.114,6.223-7.712,12.032-10.788,17.437c-3.079,5.406-5.598,10.5-7.571,15.271
		c-0.436,0.897-0.943,2.202-1.537,3.918c-1.37,3.877-3.788,6.839-6.531,7.374l-9.641,1.897h-1.158c-0.775,0-1.353-0.197-1.734-0.608
		c-0.388-0.399-0.695-1.068-0.695-1.885c0-0.902,0.084-1.49,0.193-2.005C20.309,92.486,20.458,91.913,20.627,91.367" />
    <path fill="#FFFFFF" d="M22.636,79.679V0.368H0.779v97.117h19.468c0,0-3.052,0.091-1.714-5.16L22.636,79.679z" />
    <path fill="#FFFFFF" d="M138.551,97.489h67.67V81.712h-45.948V57.443h32.623l2.464-15.779h-35.088v-25.52h45.948V0.368h-67.67
		v50.982l16.44-23.201c0,0,0.849-1.708,1.969-0.896c0,0,2.685,1.892,1.166,5.309c-1.521,3.416-8.009,16.449-19.575,32.665
		L138.551,97.489L138.551,97.489z" />
  </g>
</svg>