<?xml version="1.0" encoding="utf-8"?>
<!-- Generator: Adobe Illustrator 16.0.0, SVG Export Plug-In . SVG Version: 6.00 Build 0)  -->
<!DOCTYPE svg PUBLIC "-//W3C//DTD SVG 1.1//EN" "http://www.w3.org/Graphics/SVG/1.1/DTD/svg11.dtd">
<svg version="1.1" id="Layer_1" xmlns="http://www.w3.org/2000/svg" xmlns:xlink="http://www.w3.org/1999/xlink" x="0px" y="0px"
	 width="1920px" height="1080px" viewBox="0 0 1920 1080" enable-background="new 0 0 1920 1080" xml:space="preserve">
<g>
	<path fill="#FFFFFF" d="M1178.262,0H741.738C564.331,0,420,144.331,420,321.738v436.523C420,935.669,564.331,1080,741.738,1080
		h436.523C1355.669,1080,1500,935.669,1500,758.262V321.738C1499.998,144.331,1355.667,0,1178.262,0z M1391.352,758.262
		c0,117.686-95.404,213.09-213.09,213.09H741.738c-117.686,0-213.09-95.404-213.09-213.09V321.738
		c0-117.688,95.404-213.09,213.09-213.09h436.523c117.686,0,213.09,95.403,213.09,213.09V758.262L1391.352,758.262z"/>
	<path fill="#FFFFFF" d="M960,260.674c-154.021,0-279.326,125.306-279.326,279.324S805.979,819.324,960,819.324
		s279.326-125.306,279.326-279.326S1114.021,260.674,960,260.674z M960,710.679c-94.264,0-170.679-76.415-170.679-170.679
		S865.738,369.321,960,369.321c94.264,0,170.679,76.415,170.679,170.679C1130.679,634.262,1054.262,710.679,960,710.679z"/>
	<circle fill="#FFFFFF" cx="1239.867" cy="262.771" r="66.932"/>
</g>
</svg>
